<svg width="20" height="18" viewBox="0 0 20 18" fill="none" xmlns="http://www.w3.org/2000/svg">
<path id="Vector" fill-rule="evenodd" clip-rule="evenodd" d="M10.4018 0.0366211C5.20231 0.0366211 0.982422 3.31395 0.982422 7.34469C0.982422 9.8592 2.61198 12.0535 5.09869 13.3908L4.05314 17.2238C4.03342 17.3 4.03748 17.3805 4.06478 17.4543C4.09208 17.5282 4.14132 17.5919 4.2059 17.637C4.27047 17.6821 4.34729 17.7064 4.42606 17.7066C4.50482 17.7068 4.58176 17.6829 4.64656 17.6381L9.22439 14.5963C9.61058 14.5963 10.0062 14.6622 10.4018 14.6622C15.6013 14.6622 19.8212 11.3849 19.8212 7.34469C19.8212 3.30453 15.6013 0.0366211 10.4018 0.0366211Z" fill="black"/>
</svg>
