<svg width="26" height="27" viewBox="0 0 26 27" fill="none" xmlns="http://www.w3.org/2000/svg">
<g id="Group 46">
<path id="&#226;&#153;&#161;" d="M13 27C7.605 22.0447 0 13.7224 0 7.08353C0 3.04941 3.055 0 6.825 0C9.7175 0 11.765 1.04824 13 4.76471C14.2675 1.04824 16.315 0 19.175 0C22.945 0 26 3.04941 26 7.08353C26 13.7224 18.395 22.0447 13 27ZM13 6.25765C12.2525 6.25765 11.9925 4.73294 11.375 3.81176C10.335 2.19176 9.1325 1.30235 6.9225 1.30235C3.575 1.30235 1.3975 4.12941 1.3975 7.24235C1.3975 12.96 7.67 20.0118 13 25.2529C18.3625 20.0118 24.635 12.96 24.635 7.24235C24.635 4.12941 22.3275 1.30235 19.0775 1.30235C16.9 1.30235 15.665 2.19176 14.625 3.81176C14.04 4.73294 13.7475 6.25765 13 6.25765Z" fill="#168395"/>
<path id="Vector 62" d="M14.7815 3.04082L13.2547 6.10204H12.7457L11.7276 4.57143L10.2008 3.04082L9.38565 1.5102L6.87694 1L4.09361 2.02041L2.0579 4.06122L1.04004 7.63265L3.58469 14.2653L7.89269 20.3878L12.7457 26L13.7636 24.9796L15.2904 22.9388L17.835 20.3878L21.3975 16.8163L22.4154 14.7755L24.4511 11.2041L24.96 8.65306L23.4333 4.06122L22.9243 3.04082L20.8886 1.5102L18.8529 1L16.3082 1.5102L14.7815 3.04082Z" fill="#168395" stroke="#168395"/>
</g>
</svg>
