<svg width="40" height="40" viewBox="0 0 40 40" fill="none" xmlns="http://www.w3.org/2000/svg">
<path d="M20 34C14.605 29.0447 7 20.7224 7 14.0835C7 10.0494 10.055 7 13.825 7C16.7175 7 18.765 8.04824 20 11.7647C21.2675 8.04824 23.315 7 26.175 7C29.945 7 33 10.0494 33 14.0835C33 20.7224 25.395 29.0447 20 34ZM20 13.2576C19.2525 13.2576 18.9925 11.7329 18.375 10.8118C17.335 9.19176 16.1325 8.30235 13.9225 8.30235C10.575 8.30235 8.3975 11.1294 8.3975 14.2424C8.3975 19.96 14.67 27.0118 20 32.2529C25.3625 27.0118 31.635 19.96 31.635 14.2424C31.635 11.1294 29.3275 8.30235 26.0775 8.30235C23.9 8.30235 22.665 9.19176 21.625 10.8118C21.04 11.7329 20.7475 13.2576 20 13.2576Z" fill="#FFA100"/>
<path d="M21.7815 10.0408L20.2547 13.102H19.7457L18.7276 11.5714L17.2008 10.0408L16.3856 8.5102L13.8769 8L11.0936 9.02041L9.0579 11.0612L8.04004 14.6327L10.5847 21.2653L14.8927 27.3878L19.7457 33L20.7636 31.9796L22.2904 29.9388L24.835 27.3878L28.3975 23.8163L29.4154 21.7755L31.4511 18.2041L31.96 15.6531L30.4333 11.0612L29.9243 10.0408L27.8886 8.5102L25.8529 8L23.3082 8.5102L21.7815 10.0408Z" fill="#FFA100" stroke="#FFA100"/>
</svg>
