<svg width="40" height="40" viewBox="0 0 40 40" fill="none" xmlns="http://www.w3.org/2000/svg">
<path d="M20 34C14.605 29.0447 7 20.7224 7 14.0835C7 10.0494 10.055 7 13.825 7C16.7175 7 18.765 8.04824 20 11.7647C21.2675 8.04824 23.315 7 26.175 7C29.945 7 33 10.0494 33 14.0835C33 20.7224 25.395 29.0447 20 34ZM20 13.2576C19.2525 13.2576 18.9925 11.7329 18.375 10.8118C17.335 9.19176 16.1325 8.30235 13.9225 8.30235C10.575 8.30235 8.3975 11.1294 8.3975 14.2424C8.3975 19.96 14.67 27.0118 20 32.2529C25.3625 27.0118 31.635 19.96 31.635 14.2424C31.635 11.1294 29.3275 8.30235 26.0775 8.30235C23.9 8.30235 22.665 9.19176 21.625 10.8118C21.04 11.7329 20.7475 13.2576 20 13.2576Z" fill="white"/>
</svg>
