<svg width="32" height="32" viewBox="0 0 32 32" fill="none" xmlns="http://www.w3.org/2000/svg">
<path d="M16.0001 27.2001C11.6841 23.2359 5.6001 16.578 5.6001 11.2669C5.6001 8.03963 8.0441 5.6001 11.0601 5.6001C13.3741 5.6001 15.0121 6.43869 16.0001 9.41186C17.0141 6.43869 18.6521 5.6001 20.9401 5.6001C23.9561 5.6001 26.4001 8.03963 26.4001 11.2669C26.4001 16.578 20.3161 23.2359 16.0001 27.2001ZM16.0001 10.6062C15.4021 10.6062 15.1941 9.38645 14.7001 8.64951C13.8681 7.35351 12.9061 6.64198 11.1381 6.64198C8.4601 6.64198 6.7181 8.90363 6.7181 11.394C6.7181 15.9681 11.7361 21.6095 16.0001 25.8025C20.2901 21.6095 25.3081 15.9681 25.3081 11.394C25.3081 8.90363 23.4621 6.64198 20.8621 6.64198C19.1201 6.64198 18.1321 7.35351 17.3001 8.64951C16.8321 9.38645 16.5981 10.6062 16.0001 10.6062Z" fill="white"/>
</svg>
