<svg width="32" height="32" viewBox="0 0 32 32" fill="none" xmlns="http://www.w3.org/2000/svg">
<path d="M16.0001 27.2001C11.6841 23.2359 5.6001 16.578 5.6001 11.2669C5.6001 8.03963 8.0441 5.6001 11.0601 5.6001C13.3741 5.6001 15.0121 6.43869 16.0001 9.41186C17.0141 6.43869 18.6521 5.6001 20.9401 5.6001C23.9561 5.6001 26.4001 8.03963 26.4001 11.2669C26.4001 16.578 20.3161 23.2359 16.0001 27.2001ZM16.0001 10.6062C15.4021 10.6062 15.1941 9.38645 14.7001 8.64951C13.8681 7.35351 12.9061 6.64198 11.1381 6.64198C8.4601 6.64198 6.7181 8.90363 6.7181 11.394C6.7181 15.9681 11.7361 21.6095 16.0001 25.8025C20.2901 21.6095 25.3081 15.9681 25.3081 11.394C25.3081 8.90363 23.4621 6.64198 20.8621 6.64198C19.1201 6.64198 18.1321 7.35351 17.3001 8.64951C16.8321 9.38645 16.5981 10.6062 16.0001 10.6062Z" fill="#FFA100"/>
<path d="M17.4253 8.0328L16.2038 10.4818H15.7967L14.9821 9.25729L13.7607 8.0328L13.1086 6.80831L11.1016 6.40015L8.87499 7.21647L7.24642 8.84913L6.43213 11.7063L8.46785 17.0124L11.9143 21.9104L15.7967 26.4001L16.611 25.5838L17.8324 23.9512L19.8681 21.9104L22.7181 19.0532L23.5324 17.4206L25.161 14.5634L25.5681 12.5226L24.3467 8.84913L23.9396 8.0328L22.311 6.80831L20.6824 6.40015L18.6467 6.80831L17.4253 8.0328Z" fill="#FFA100" stroke="#FFA100" stroke-width="0.8"/>
</svg>
