<svg width="30" height="30" viewBox="0 0 30 30" fill="none" xmlns="http://www.w3.org/2000/svg">
<rect x="0.5" y="0.5" width="29" height="29" rx="14.5" stroke="white"/>
<path d="M15.6146 19.896C14.693 19.896 13.8546 19.7104 13.0994 19.3392C12.357 18.968 11.7682 18.4176 11.333 17.688C10.8978 16.9584 10.6802 16.088 10.6802 15.0768C10.6802 13.464 11.109 12.2352 11.9666 11.3904C12.837 10.5328 14.0338 10.104 15.557 10.104C16.389 10.104 17.0866 10.1936 17.6498 10.3728C18.213 10.552 18.757 10.84 19.2818 11.2368V13.08H17.4962V12.024C17.2018 11.8576 16.9202 11.7424 16.6514 11.6784C16.3826 11.6144 16.0178 11.5824 15.557 11.5824C14.6994 11.5824 14.0018 11.8704 13.4642 12.4464C12.9394 13.0096 12.677 13.8864 12.677 15.0768C12.677 16.2032 12.9778 17.0416 13.5794 17.592C14.1938 18.1296 14.9746 18.3984 15.9218 18.3984C16.5106 18.3984 17.0098 18.3472 17.4194 18.2448C17.8418 18.1424 18.2386 17.9696 18.6098 17.7264L19.3202 18.8976C18.7826 19.2688 18.2322 19.5248 17.669 19.6656C17.1186 19.8192 16.4338 19.896 15.6146 19.896Z" fill="white"/>
</svg>
