<svg width="10" height="11" viewBox="0 0 10 11" fill="none" xmlns="http://www.w3.org/2000/svg">
<g id="Frame 336">
<path id="&#226;&#153;&#161;" d="M4.86647 10.1813C3.00727 8.47365 0.386475 5.60564 0.386475 3.3178C0.386475 1.92758 1.43927 0.876709 2.73847 0.876709C3.73527 0.876709 4.44087 1.23795 4.86647 2.5187C5.30327 1.23795 6.00887 0.876709 6.99447 0.876709C8.29367 0.876709 9.34647 1.92758 9.34647 3.3178C9.34647 5.60564 6.72567 8.47365 4.86647 10.1813ZM4.86647 3.03319C4.60887 3.03319 4.51927 2.50775 4.30647 2.1903C3.94807 1.63202 3.53367 1.32552 2.77207 1.32552C1.61847 1.32552 0.868075 2.29977 0.868075 3.37254C0.868075 5.34292 3.02967 7.77307 4.86647 9.57926C6.71447 7.77307 8.87607 5.34292 8.87607 3.37254C8.87607 2.29977 8.08087 1.32552 6.96087 1.32552C6.21047 1.32552 5.78487 1.63202 5.42647 2.1903C5.22487 2.50775 5.12407 3.03319 4.86647 3.03319Z" fill="white"/>
<path id="Vector 62" d="M5.48038 1.92449L4.95422 2.97943H4.77884L4.42795 2.45196L3.9018 1.92449L3.6209 1.39702L2.75636 1.22119L1.79718 1.57284L1.09564 2.27614L0.744873 3.50691L1.6218 5.79262L3.1064 7.90251L4.77884 9.83658L5.12961 9.48493L5.65576 8.78163L6.53269 7.90251L7.76038 6.67174L8.11115 5.96844L8.81269 4.73767L8.98807 3.85855L8.46192 2.27614L8.28653 1.92449L7.58499 1.39702L6.88346 1.22119L6.00653 1.39702L5.48038 1.92449Z" fill="white" stroke="white" stroke-width="0.344615"/>
</g>
</svg>
